<svg width="48" height="48" viewBox="0 0 48 48" fill="none" xmlns="http://www.w3.org/2000/svg">
<path d="M22 26C16.477 26 12 19.523 12 14V12C12 6.477 16.477 2 22 2C27.523 2 32 6.477 32 12V14C32 19.523 27.523 26 22 26Z" stroke="white" stroke-width="2" stroke-miterlimit="10" stroke-linecap="round" stroke-linejoin="round"/>
<path d="M28.683 31.418C26.636 31.162 24.398 31 22 31C15.712 31 10.523 32.098 7.007 33.144C4.034 34.028 2 36.755 2 39.856V44H27" stroke="white" stroke-width="2" stroke-miterlimit="10" stroke-linecap="round" stroke-linejoin="round"/>
<path d="M44.562 30.443C42.373 28.246 38.719 28.605 37 31.204C35.279 28.602 31.625 28.248 29.438 30.443C27.521 32.367 27.521 35.487 29.438 37.41L36.999 45L44.562 37.41C46.479 35.486 46.479 32.367 44.562 30.443Z" stroke="white" stroke-width="2" stroke-miterlimit="10" stroke-linecap="round" stroke-linejoin="round"/>
</svg>
