<svg width="104" height="104" viewBox="0 0 104 104" fill="none" xmlns="http://www.w3.org/2000/svg">
<circle cx="52" cy="52" r="52" fill="#F04B5F"/>
<path d="M53 54C47.477 54 43 47.523 43 42V40C43 34.477 47.477 30 53 30C58.523 30 63 34.477 63 40V42C63 47.523 58.523 54 53 54Z" stroke="white" stroke-width="2" stroke-miterlimit="10" stroke-linecap="round" stroke-linejoin="round"/>
<path d="M59.683 59.418C57.636 59.162 55.398 59 53 59C46.712 59 41.523 60.098 38.007 61.144C35.034 62.028 33 64.755 33 67.856V72H58" stroke="white" stroke-width="2" stroke-miterlimit="10" stroke-linecap="round" stroke-linejoin="round"/>
<path d="M75.562 58.4431C73.373 56.2461 69.719 56.6051 68 59.2041C66.279 56.6021 62.625 56.2481 60.438 58.4431C58.521 60.3671 58.521 63.4871 60.438 65.4101L67.999 73.0001L75.562 65.4101C77.479 63.4861 77.479 60.3671 75.562 58.4431Z" stroke="white" stroke-width="2" stroke-miterlimit="10" stroke-linecap="round" stroke-linejoin="round"/>
</svg>
