<svg width="48" height="48" viewBox="0 0 48 48" fill="none" xmlns="http://www.w3.org/2000/svg">
<path d="M32 37L34 39L38 35" stroke="#5600E8" stroke-width="2" stroke-miterlimit="10" stroke-linecap="round" stroke-linejoin="round"/>
<path d="M35 46C39.9706 46 44 41.9706 44 37C44 32.0294 39.9706 28 35 28C30.0294 28 26 32.0294 26 37C26 41.9706 30.0294 46 35 46Z" stroke="#5600E8" stroke-width="2" stroke-miterlimit="10" stroke-linecap="round" stroke-linejoin="round"/>
<path d="M45 16H3" stroke="#5600E8" stroke-width="2" stroke-miterlimit="10" stroke-linecap="round" stroke-linejoin="round"/>
<path d="M21 42H6C5.20435 42 4.44129 41.6839 3.87868 41.1213C3.31607 40.5587 3 39.7956 3 39V9C3 8.20435 3.31607 7.44129 3.87868 6.87868C4.44129 6.31607 5.20435 6 6 6H42C42.7956 6 43.5587 6.31607 44.1213 6.87868C44.6839 7.44129 45 8.20435 45 9V25.012" stroke="#5600E8" stroke-width="2" stroke-miterlimit="10" stroke-linecap="round" stroke-linejoin="round"/>
<path d="M13 2V10" stroke="#5600E8" stroke-width="2" stroke-miterlimit="10" stroke-linecap="round" stroke-linejoin="round"/>
<path d="M35 2V10" stroke="#5600E8" stroke-width="2" stroke-miterlimit="10" stroke-linecap="round" stroke-linejoin="round"/>
</svg>
