<svg width="104" height="104" viewBox="0 0 104 104" fill="none" xmlns="http://www.w3.org/2000/svg">
<circle cx="52" cy="52" r="52" fill="#754DB7"/>
<path d="M35 30H69" stroke="white" stroke-width="2" stroke-miterlimit="10" stroke-linecap="round" stroke-linejoin="round"/>
<path d="M35 74H69" stroke="white" stroke-width="2" stroke-miterlimit="10" stroke-linecap="round" stroke-linejoin="round"/>
<path d="M38 74V66.422C38.0002 64.8428 38.4679 63.2989 39.344 61.985L46 52L39.344 42.015C38.4679 40.7011 38.0002 39.1572 38 37.578V30" stroke="white" stroke-width="2" stroke-miterlimit="10" stroke-linecap="round" stroke-linejoin="round"/>
<path d="M66 30V37.578C65.9998 39.1572 65.5321 40.7011 64.656 42.015L58 52L64.656 61.985C65.5321 63.2989 65.9998 64.8428 66 66.422V74" stroke="white" stroke-width="2" stroke-miterlimit="10" stroke-linecap="round" stroke-linejoin="round"/>
<path d="M45 67V66.422C45.0001 66.224 45.0589 66.0305 45.169 65.866L52 55.62L58.832 65.867C58.9413 66.0315 58.9997 66.2245 59 66.422V67H45Z" stroke="white" stroke-width="2" stroke-miterlimit="10" stroke-linecap="round" stroke-linejoin="round"/>
</svg>
