<svg width="104" height="104" viewBox="0 0 104 104" fill="none" xmlns="http://www.w3.org/2000/svg">
<circle cx="52" cy="52" r="52" fill="#57A6C1"/>
<path d="M50 54C44.477 54 40 47.523 40 42V40C40 34.477 44.477 30 50 30C55.523 30 60 34.477 60 40V42C60 47.523 55.523 54 50 54Z" stroke="white" stroke-width="2" stroke-miterlimit="10" stroke-linecap="round" stroke-linejoin="round"/>
<path d="M50 59C43.712 59 38.523 60.098 35.007 61.144C32.034 62.028 30 64.755 30 67.856V72H52" stroke="white" stroke-width="2" stroke-miterlimit="10" stroke-linecap="round" stroke-linejoin="round"/>
<path d="M64 57L66.472 62.009L72 62.812L68 66.711L68.944 72.217L64 69.618L59.056 72.217L60 66.711L56 62.812L61.528 62.009L64 57Z" stroke="white" stroke-width="2" stroke-miterlimit="10" stroke-linecap="round" stroke-linejoin="round"/>
</svg>
